<mxfile host="app.diagrams.net" modified="2022-07-22T16:59:19.908Z" agent="5.0 (Windows NT 10.0; Win64; x64) AppleWebKit/537.36 (KHTML, like Gecko) Chrome/101.0.0.0 Safari/537.36" etag="JIXh-KQ8-C7XEQp__xzT" version="20.1.4" type="github">
  <diagram id="4tOisqnhH95XmzhV952y" name="第 1 页">
    <mxGraphModel dx="4794" dy="1034" grid="0" gridSize="10" guides="1" tooltips="1" connect="1" arrows="1" fold="1" page="0" pageScale="1" pageWidth="827" pageHeight="1169" math="0" shadow="0">
      <root>
        <mxCell id="0" />
        <mxCell id="1" parent="0" />
        <mxCell id="DMb4ahATADNOb4X12-S3-3" style="edgeStyle=orthogonalEdgeStyle;rounded=0;orthogonalLoop=1;jettySize=auto;html=1;" parent="1" source="DMb4ahATADNOb4X12-S3-1" target="DMb4ahATADNOb4X12-S3-2" edge="1">
          <mxGeometry relative="1" as="geometry" />
        </mxCell>
        <mxCell id="DMb4ahATADNOb4X12-S3-1" value="Actor" style="shape=umlActor;verticalLabelPosition=bottom;verticalAlign=top;html=1;outlineConnect=0;" parent="1" vertex="1">
          <mxGeometry x="40" y="260" width="30" height="60" as="geometry" />
        </mxCell>
        <mxCell id="DMb4ahATADNOb4X12-S3-16" style="edgeStyle=orthogonalEdgeStyle;rounded=0;orthogonalLoop=1;jettySize=auto;html=1;entryX=0;entryY=0.5;entryDx=0;entryDy=0;" parent="1" source="DMb4ahATADNOb4X12-S3-2" target="DMb4ahATADNOb4X12-S3-4" edge="1">
          <mxGeometry relative="1" as="geometry" />
        </mxCell>
        <mxCell id="DMb4ahATADNOb4X12-S3-47" style="edgeStyle=orthogonalEdgeStyle;rounded=0;orthogonalLoop=1;jettySize=auto;html=1;" parent="1" source="DMb4ahATADNOb4X12-S3-2" target="DMb4ahATADNOb4X12-S3-28" edge="1">
          <mxGeometry relative="1" as="geometry" />
        </mxCell>
        <mxCell id="DMb4ahATADNOb4X12-S3-48" style="edgeStyle=orthogonalEdgeStyle;rounded=0;orthogonalLoop=1;jettySize=auto;html=1;entryX=0;entryY=0.5;entryDx=0;entryDy=0;" parent="1" source="DMb4ahATADNOb4X12-S3-2" target="DMb4ahATADNOb4X12-S3-38" edge="1">
          <mxGeometry relative="1" as="geometry" />
        </mxCell>
        <mxCell id="DMb4ahATADNOb4X12-S3-2" value="调度&lt;br&gt;处理请求&lt;br&gt;适配 URL&lt;br&gt;跳转页面" style="rounded=0;whiteSpace=wrap;html=1;" parent="1" vertex="1">
          <mxGeometry x="120" y="260" width="120" height="60" as="geometry" />
        </mxCell>
        <mxCell id="DMb4ahATADNOb4X12-S3-9" style="edgeStyle=orthogonalEdgeStyle;rounded=0;orthogonalLoop=1;jettySize=auto;html=1;exitX=1;exitY=0.25;exitDx=0;exitDy=0;entryX=0;entryY=0.25;entryDx=0;entryDy=0;" parent="1" source="DMb4ahATADNOb4X12-S3-4" target="DMb4ahATADNOb4X12-S3-5" edge="1">
          <mxGeometry relative="1" as="geometry" />
        </mxCell>
        <mxCell id="DMb4ahATADNOb4X12-S3-4" value="Servlet" style="rounded=0;whiteSpace=wrap;html=1;" parent="1" vertex="1">
          <mxGeometry x="320" y="150" width="120" height="60" as="geometry" />
        </mxCell>
        <mxCell id="DMb4ahATADNOb4X12-S3-10" style="edgeStyle=orthogonalEdgeStyle;rounded=0;orthogonalLoop=1;jettySize=auto;html=1;exitX=1;exitY=0.25;exitDx=0;exitDy=0;entryX=0;entryY=0.25;entryDx=0;entryDy=0;" parent="1" source="DMb4ahATADNOb4X12-S3-5" target="DMb4ahATADNOb4X12-S3-6" edge="1">
          <mxGeometry relative="1" as="geometry" />
        </mxCell>
        <mxCell id="DMb4ahATADNOb4X12-S3-15" style="edgeStyle=orthogonalEdgeStyle;rounded=0;orthogonalLoop=1;jettySize=auto;html=1;exitX=0;exitY=0.75;exitDx=0;exitDy=0;entryX=1;entryY=0.75;entryDx=0;entryDy=0;" parent="1" source="DMb4ahATADNOb4X12-S3-5" target="DMb4ahATADNOb4X12-S3-4" edge="1">
          <mxGeometry relative="1" as="geometry" />
        </mxCell>
        <mxCell id="DMb4ahATADNOb4X12-S3-5" value="Service" style="rounded=0;whiteSpace=wrap;html=1;" parent="1" vertex="1">
          <mxGeometry x="520" y="150" width="120" height="60" as="geometry" />
        </mxCell>
        <mxCell id="DMb4ahATADNOb4X12-S3-11" style="edgeStyle=orthogonalEdgeStyle;rounded=0;orthogonalLoop=1;jettySize=auto;html=1;exitX=1;exitY=0.25;exitDx=0;exitDy=0;entryX=0;entryY=0.3;entryDx=0;entryDy=0;" parent="1" source="DMb4ahATADNOb4X12-S3-6" target="DMb4ahATADNOb4X12-S3-8" edge="1">
          <mxGeometry relative="1" as="geometry" />
        </mxCell>
        <mxCell id="DMb4ahATADNOb4X12-S3-14" style="edgeStyle=orthogonalEdgeStyle;rounded=0;orthogonalLoop=1;jettySize=auto;html=1;exitX=0;exitY=0.75;exitDx=0;exitDy=0;entryX=1;entryY=0.75;entryDx=0;entryDy=0;" parent="1" source="DMb4ahATADNOb4X12-S3-6" target="DMb4ahATADNOb4X12-S3-5" edge="1">
          <mxGeometry relative="1" as="geometry" />
        </mxCell>
        <mxCell id="DMb4ahATADNOb4X12-S3-6" value="dao" style="rounded=0;whiteSpace=wrap;html=1;" parent="1" vertex="1">
          <mxGeometry x="720" y="150" width="120" height="60" as="geometry" />
        </mxCell>
        <mxCell id="DMb4ahATADNOb4X12-S3-13" style="edgeStyle=orthogonalEdgeStyle;rounded=0;orthogonalLoop=1;jettySize=auto;html=1;exitX=0;exitY=0.7;exitDx=0;exitDy=0;entryX=1;entryY=0.75;entryDx=0;entryDy=0;" parent="1" source="DMb4ahATADNOb4X12-S3-8" target="DMb4ahATADNOb4X12-S3-6" edge="1">
          <mxGeometry relative="1" as="geometry" />
        </mxCell>
        <mxCell id="DMb4ahATADNOb4X12-S3-8" value="数据库" style="shape=datastore;whiteSpace=wrap;html=1;" parent="1" vertex="1">
          <mxGeometry x="950" y="145" width="70" height="70" as="geometry" />
        </mxCell>
        <mxCell id="DMb4ahATADNOb4X12-S3-27" style="edgeStyle=orthogonalEdgeStyle;rounded=0;orthogonalLoop=1;jettySize=auto;html=1;exitX=1;exitY=0.25;exitDx=0;exitDy=0;entryX=0;entryY=0.25;entryDx=0;entryDy=0;" parent="1" source="DMb4ahATADNOb4X12-S3-28" target="DMb4ahATADNOb4X12-S3-31" edge="1">
          <mxGeometry relative="1" as="geometry" />
        </mxCell>
        <mxCell id="DMb4ahATADNOb4X12-S3-28" value="Servlet" style="rounded=0;whiteSpace=wrap;html=1;" parent="1" vertex="1">
          <mxGeometry x="320" y="260" width="120" height="60" as="geometry" />
        </mxCell>
        <mxCell id="DMb4ahATADNOb4X12-S3-29" style="edgeStyle=orthogonalEdgeStyle;rounded=0;orthogonalLoop=1;jettySize=auto;html=1;exitX=1;exitY=0.25;exitDx=0;exitDy=0;entryX=0;entryY=0.25;entryDx=0;entryDy=0;" parent="1" source="DMb4ahATADNOb4X12-S3-31" target="DMb4ahATADNOb4X12-S3-34" edge="1">
          <mxGeometry relative="1" as="geometry" />
        </mxCell>
        <mxCell id="DMb4ahATADNOb4X12-S3-30" style="edgeStyle=orthogonalEdgeStyle;rounded=0;orthogonalLoop=1;jettySize=auto;html=1;exitX=0;exitY=0.75;exitDx=0;exitDy=0;entryX=1;entryY=0.75;entryDx=0;entryDy=0;" parent="1" source="DMb4ahATADNOb4X12-S3-31" target="DMb4ahATADNOb4X12-S3-28" edge="1">
          <mxGeometry relative="1" as="geometry" />
        </mxCell>
        <mxCell id="DMb4ahATADNOb4X12-S3-31" value="Service" style="rounded=0;whiteSpace=wrap;html=1;" parent="1" vertex="1">
          <mxGeometry x="520" y="260" width="120" height="60" as="geometry" />
        </mxCell>
        <mxCell id="DMb4ahATADNOb4X12-S3-32" style="edgeStyle=orthogonalEdgeStyle;rounded=0;orthogonalLoop=1;jettySize=auto;html=1;exitX=1;exitY=0.25;exitDx=0;exitDy=0;entryX=0;entryY=0.3;entryDx=0;entryDy=0;" parent="1" source="DMb4ahATADNOb4X12-S3-34" target="DMb4ahATADNOb4X12-S3-36" edge="1">
          <mxGeometry relative="1" as="geometry" />
        </mxCell>
        <mxCell id="DMb4ahATADNOb4X12-S3-33" style="edgeStyle=orthogonalEdgeStyle;rounded=0;orthogonalLoop=1;jettySize=auto;html=1;exitX=0;exitY=0.75;exitDx=0;exitDy=0;entryX=1;entryY=0.75;entryDx=0;entryDy=0;" parent="1" source="DMb4ahATADNOb4X12-S3-34" target="DMb4ahATADNOb4X12-S3-31" edge="1">
          <mxGeometry relative="1" as="geometry" />
        </mxCell>
        <mxCell id="DMb4ahATADNOb4X12-S3-34" value="dao" style="rounded=0;whiteSpace=wrap;html=1;" parent="1" vertex="1">
          <mxGeometry x="720" y="260" width="120" height="60" as="geometry" />
        </mxCell>
        <mxCell id="DMb4ahATADNOb4X12-S3-35" style="edgeStyle=orthogonalEdgeStyle;rounded=0;orthogonalLoop=1;jettySize=auto;html=1;exitX=0;exitY=0.7;exitDx=0;exitDy=0;entryX=1;entryY=0.75;entryDx=0;entryDy=0;" parent="1" source="DMb4ahATADNOb4X12-S3-36" target="DMb4ahATADNOb4X12-S3-34" edge="1">
          <mxGeometry relative="1" as="geometry" />
        </mxCell>
        <mxCell id="DMb4ahATADNOb4X12-S3-36" value="数据库" style="shape=datastore;whiteSpace=wrap;html=1;" parent="1" vertex="1">
          <mxGeometry x="950" y="255" width="70" height="70" as="geometry" />
        </mxCell>
        <mxCell id="DMb4ahATADNOb4X12-S3-37" style="edgeStyle=orthogonalEdgeStyle;rounded=0;orthogonalLoop=1;jettySize=auto;html=1;exitX=1;exitY=0.25;exitDx=0;exitDy=0;entryX=0;entryY=0.25;entryDx=0;entryDy=0;" parent="1" source="DMb4ahATADNOb4X12-S3-38" target="DMb4ahATADNOb4X12-S3-41" edge="1">
          <mxGeometry relative="1" as="geometry" />
        </mxCell>
        <mxCell id="DMb4ahATADNOb4X12-S3-38" value="Servlet" style="rounded=0;whiteSpace=wrap;html=1;" parent="1" vertex="1">
          <mxGeometry x="320" y="385" width="120" height="60" as="geometry" />
        </mxCell>
        <mxCell id="DMb4ahATADNOb4X12-S3-39" style="edgeStyle=orthogonalEdgeStyle;rounded=0;orthogonalLoop=1;jettySize=auto;html=1;exitX=1;exitY=0.25;exitDx=0;exitDy=0;entryX=0;entryY=0.25;entryDx=0;entryDy=0;" parent="1" source="DMb4ahATADNOb4X12-S3-41" target="DMb4ahATADNOb4X12-S3-44" edge="1">
          <mxGeometry relative="1" as="geometry" />
        </mxCell>
        <mxCell id="DMb4ahATADNOb4X12-S3-40" style="edgeStyle=orthogonalEdgeStyle;rounded=0;orthogonalLoop=1;jettySize=auto;html=1;exitX=0;exitY=0.75;exitDx=0;exitDy=0;entryX=1;entryY=0.75;entryDx=0;entryDy=0;" parent="1" source="DMb4ahATADNOb4X12-S3-41" target="DMb4ahATADNOb4X12-S3-38" edge="1">
          <mxGeometry relative="1" as="geometry" />
        </mxCell>
        <mxCell id="DMb4ahATADNOb4X12-S3-41" value="Service" style="rounded=0;whiteSpace=wrap;html=1;" parent="1" vertex="1">
          <mxGeometry x="520" y="385" width="120" height="60" as="geometry" />
        </mxCell>
        <mxCell id="DMb4ahATADNOb4X12-S3-42" style="edgeStyle=orthogonalEdgeStyle;rounded=0;orthogonalLoop=1;jettySize=auto;html=1;exitX=1;exitY=0.25;exitDx=0;exitDy=0;entryX=0;entryY=0.3;entryDx=0;entryDy=0;" parent="1" source="DMb4ahATADNOb4X12-S3-44" target="DMb4ahATADNOb4X12-S3-46" edge="1">
          <mxGeometry relative="1" as="geometry" />
        </mxCell>
        <mxCell id="DMb4ahATADNOb4X12-S3-43" style="edgeStyle=orthogonalEdgeStyle;rounded=0;orthogonalLoop=1;jettySize=auto;html=1;exitX=0;exitY=0.75;exitDx=0;exitDy=0;entryX=1;entryY=0.75;entryDx=0;entryDy=0;" parent="1" source="DMb4ahATADNOb4X12-S3-44" target="DMb4ahATADNOb4X12-S3-41" edge="1">
          <mxGeometry relative="1" as="geometry" />
        </mxCell>
        <mxCell id="DMb4ahATADNOb4X12-S3-44" value="dao" style="rounded=0;whiteSpace=wrap;html=1;" parent="1" vertex="1">
          <mxGeometry x="720" y="385" width="120" height="60" as="geometry" />
        </mxCell>
        <mxCell id="DMb4ahATADNOb4X12-S3-45" style="edgeStyle=orthogonalEdgeStyle;rounded=0;orthogonalLoop=1;jettySize=auto;html=1;exitX=0;exitY=0.7;exitDx=0;exitDy=0;entryX=1;entryY=0.75;entryDx=0;entryDy=0;" parent="1" source="DMb4ahATADNOb4X12-S3-46" target="DMb4ahATADNOb4X12-S3-44" edge="1">
          <mxGeometry relative="1" as="geometry" />
        </mxCell>
        <mxCell id="DMb4ahATADNOb4X12-S3-46" value="数据库" style="shape=datastore;whiteSpace=wrap;html=1;" parent="1" vertex="1">
          <mxGeometry x="950" y="380" width="70" height="70" as="geometry" />
        </mxCell>
        <mxCell id="DMb4ahATADNOb4X12-S3-49" value="JSP" style="rounded=0;whiteSpace=wrap;html=1;" parent="1" vertex="1">
          <mxGeometry x="100" y="525" width="120" height="60" as="geometry" />
        </mxCell>
        <mxCell id="DMb4ahATADNOb4X12-S3-50" value="JSP" style="rounded=0;whiteSpace=wrap;html=1;" parent="1" vertex="1">
          <mxGeometry x="260" y="525" width="120" height="60" as="geometry" />
        </mxCell>
        <mxCell id="DMb4ahATADNOb4X12-S3-51" value="JSP" style="rounded=0;whiteSpace=wrap;html=1;" parent="1" vertex="1">
          <mxGeometry x="420" y="525" width="120" height="60" as="geometry" />
        </mxCell>
        <mxCell id="j7wyvuA6OXwUdKk2D4u--38" value="" style="rounded=0;whiteSpace=wrap;html=1;fontSize=18;fillColor=#f5f5f5;fontColor=#333333;strokeColor=#666666;" vertex="1" parent="1">
          <mxGeometry x="-2719" y="223" width="1075" height="795" as="geometry" />
        </mxCell>
        <mxCell id="j7wyvuA6OXwUdKk2D4u--39" value="&lt;font style=&quot;font-size: 18px;&quot;&gt;前端控制器&lt;br&gt;DispatcherController&lt;/font&gt;" style="whiteSpace=wrap;html=1;aspect=fixed;" vertex="1" parent="1">
          <mxGeometry x="-2612" y="339" width="220" height="220" as="geometry" />
        </mxCell>
        <mxCell id="j7wyvuA6OXwUdKk2D4u--40" value="&lt;font style=&quot;font-size: 18px;&quot;&gt;页面控制器/处理器&lt;/font&gt;" style="rounded=0;whiteSpace=wrap;html=1;" vertex="1" parent="1">
          <mxGeometry x="-2104" y="339" width="284" height="220" as="geometry" />
        </mxCell>
        <mxCell id="j7wyvuA6OXwUdKk2D4u--41" value="用户" style="shape=umlActor;verticalLabelPosition=bottom;verticalAlign=top;html=1;outlineConnect=0;fontSize=18;" vertex="1" parent="1">
          <mxGeometry x="-2887" y="418" width="49" height="76" as="geometry" />
        </mxCell>
        <mxCell id="j7wyvuA6OXwUdKk2D4u--42" value="" style="html=1;shadow=0;dashed=0;align=center;verticalAlign=middle;shape=mxgraph.arrows2.arrow;dy=0.67;dx=20;notch=0;fontSize=18;" vertex="1" parent="1">
          <mxGeometry x="-2802" y="390" width="178" height="60" as="geometry" />
        </mxCell>
        <mxCell id="j7wyvuA6OXwUdKk2D4u--43" value="" style="html=1;shadow=0;dashed=0;align=center;verticalAlign=middle;shape=mxgraph.arrows2.arrow;dy=0.67;dx=20;notch=0;fontSize=18;direction=west;" vertex="1" parent="1">
          <mxGeometry x="-2802" y="479" width="177" height="60" as="geometry" />
        </mxCell>
        <mxCell id="j7wyvuA6OXwUdKk2D4u--44" value="8. 产生响应" style="text;html=1;align=center;verticalAlign=middle;resizable=0;points=[];autosize=1;strokeColor=none;fillColor=none;fontSize=18;" vertex="1" parent="1">
          <mxGeometry x="-2768" y="517" width="110" height="34" as="geometry" />
        </mxCell>
        <mxCell id="j7wyvuA6OXwUdKk2D4u--45" value="1. 发送请求" style="text;html=1;align=center;verticalAlign=middle;resizable=0;points=[];autosize=1;strokeColor=none;fillColor=none;fontSize=18;" vertex="1" parent="1">
          <mxGeometry x="-2775" y="371" width="110" height="34" as="geometry" />
        </mxCell>
        <mxCell id="j7wyvuA6OXwUdKk2D4u--46" value="" style="html=1;shadow=0;dashed=0;align=center;verticalAlign=middle;shape=mxgraph.arrows2.arrow;dy=0.67;dx=20;notch=0;fontSize=18;" vertex="1" parent="1">
          <mxGeometry x="-2383" y="358" width="275" height="60" as="geometry" />
        </mxCell>
        <mxCell id="j7wyvuA6OXwUdKk2D4u--47" value="2. 委托请求给处理器" style="text;html=1;align=center;verticalAlign=middle;resizable=0;points=[];autosize=1;strokeColor=none;fillColor=none;fontSize=18;" vertex="1" parent="1">
          <mxGeometry x="-2350" y="339" width="182" height="34" as="geometry" />
        </mxCell>
        <mxCell id="j7wyvuA6OXwUdKk2D4u--48" value="" style="html=1;shadow=0;dashed=0;align=center;verticalAlign=middle;shape=mxgraph.arrows2.arrow;dy=0.67;dx=20;notch=0;fontSize=18;direction=west;" vertex="1" parent="1">
          <mxGeometry x="-2384" y="484" width="271" height="60" as="geometry" />
        </mxCell>
        <mxCell id="j7wyvuA6OXwUdKk2D4u--49" value="5. 返回ModelAndView" style="text;html=1;align=center;verticalAlign=middle;resizable=0;points=[];autosize=1;strokeColor=none;fillColor=none;fontSize=18;" vertex="1" parent="1">
          <mxGeometry x="-2343" y="460" width="194" height="34" as="geometry" />
        </mxCell>
        <mxCell id="j7wyvuA6OXwUdKk2D4u--50" value="ModelAndView" style="rounded=1;whiteSpace=wrap;html=1;fontSize=18;" vertex="1" parent="1">
          <mxGeometry x="-2303" y="494" width="131" height="49" as="geometry" />
        </mxCell>
        <mxCell id="j7wyvuA6OXwUdKk2D4u--51" value="模型" style="rounded=0;whiteSpace=wrap;html=1;fontSize=18;" vertex="1" parent="1">
          <mxGeometry x="-2062" y="737" width="231" height="201" as="geometry" />
        </mxCell>
        <mxCell id="j7wyvuA6OXwUdKk2D4u--52" value="" style="html=1;shadow=0;dashed=0;align=center;verticalAlign=middle;shape=mxgraph.arrows2.arrow;dy=0.67;dx=20;notch=0;fontSize=18;direction=south;" vertex="1" parent="1">
          <mxGeometry x="-1939" y="566" width="60" height="169" as="geometry" />
        </mxCell>
        <mxCell id="j7wyvuA6OXwUdKk2D4u--53" value="3. &lt;br&gt;调&lt;br&gt;用&lt;br&gt;业&lt;br&gt;务&lt;br&gt;对&lt;br&gt;象" style="text;html=1;align=center;verticalAlign=middle;resizable=0;points=[];autosize=1;strokeColor=none;fillColor=none;fontSize=18;" vertex="1" parent="1">
          <mxGeometry x="-1875" y="566" width="36" height="163" as="geometry" />
        </mxCell>
        <mxCell id="j7wyvuA6OXwUdKk2D4u--54" value="" style="html=1;shadow=0;dashed=0;align=center;verticalAlign=middle;shape=mxgraph.arrows2.arrow;dy=0.67;dx=20;notch=0;fontSize=18;direction=north;" vertex="1" parent="1">
          <mxGeometry x="-2046" y="566" width="60" height="164.5" as="geometry" />
        </mxCell>
        <mxCell id="j7wyvuA6OXwUdKk2D4u--55" value="4.&lt;br&gt;返&lt;br&gt;回&lt;br&gt;模&lt;br&gt;型&lt;br&gt;数&lt;br&gt;据" style="text;html=1;align=center;verticalAlign=middle;resizable=0;points=[];autosize=1;strokeColor=none;fillColor=none;fontSize=18;" vertex="1" parent="1">
          <mxGeometry x="-2082" y="569" width="36" height="163" as="geometry" />
        </mxCell>
        <mxCell id="j7wyvuA6OXwUdKk2D4u--56" value="视图" style="rounded=0;whiteSpace=wrap;html=1;fontSize=18;" vertex="1" parent="1">
          <mxGeometry x="-2595" y="729" width="196" height="119" as="geometry" />
        </mxCell>
        <mxCell id="j7wyvuA6OXwUdKk2D4u--57" value="" style="html=1;shadow=0;dashed=0;align=center;verticalAlign=middle;shape=mxgraph.arrows2.arrow;dy=0.67;dx=20;notch=0;fontSize=18;direction=south;" vertex="1" parent="1">
          <mxGeometry x="-2486" y="566" width="60" height="161" as="geometry" />
        </mxCell>
        <mxCell id="j7wyvuA6OXwUdKk2D4u--58" value="Model" style="rounded=1;whiteSpace=wrap;html=1;fontSize=18;direction=east;" vertex="1" parent="1">
          <mxGeometry x="-2495" y="617" width="78" height="38" as="geometry" />
        </mxCell>
        <mxCell id="j7wyvuA6OXwUdKk2D4u--59" value="6.&lt;br&gt;渲&lt;br&gt;染&lt;br&gt;视&lt;br&gt;图" style="text;html=1;align=center;verticalAlign=middle;resizable=0;points=[];autosize=1;strokeColor=none;fillColor=none;fontSize=18;" vertex="1" parent="1">
          <mxGeometry x="-2411" y="580" width="36" height="120" as="geometry" />
        </mxCell>
        <mxCell id="j7wyvuA6OXwUdKk2D4u--60" value="" style="html=1;shadow=0;dashed=0;align=center;verticalAlign=middle;shape=mxgraph.arrows2.arrow;dy=0.67;dx=20;notch=0;fontSize=18;direction=north;" vertex="1" parent="1">
          <mxGeometry x="-2588" y="562" width="60" height="158" as="geometry" />
        </mxCell>
        <mxCell id="j7wyvuA6OXwUdKk2D4u--61" value="7.&lt;br&gt;返&lt;br&gt;回&lt;br&gt;控&lt;br&gt;制" style="text;html=1;align=center;verticalAlign=middle;resizable=0;points=[];autosize=1;strokeColor=none;fillColor=none;fontSize=18;" vertex="1" parent="1">
          <mxGeometry x="-2625" y="587.5" width="36" height="120" as="geometry" />
        </mxCell>
        <mxCell id="j7wyvuA6OXwUdKk2D4u--62" value="&lt;font style=&quot;font-size: 18px;&quot;&gt;Web容器：Tomcat&lt;/font&gt;" style="text;html=1;strokeColor=none;fillColor=none;align=center;verticalAlign=middle;whiteSpace=wrap;rounded=0;fontSize=18;" vertex="1" parent="1">
          <mxGeometry x="-2314" y="938" width="178" height="30" as="geometry" />
        </mxCell>
        <mxCell id="j7wyvuA6OXwUdKk2D4u--125" value="" style="rounded=0;whiteSpace=wrap;html=1;fontSize=18;fillColor=#ffe6cc;strokeColor=#d79b00;glass=0;sketch=0;shadow=0;" vertex="1" parent="1">
          <mxGeometry x="-1936" y="1211" width="567" height="898" as="geometry" />
        </mxCell>
        <mxCell id="j7wyvuA6OXwUdKk2D4u--126" style="rounded=0;orthogonalLoop=1;jettySize=auto;html=1;entryX=0.5;entryY=0;entryDx=0;entryDy=0;dashed=1;fontSize=18;edgeStyle=orthogonalEdgeStyle;" edge="1" parent="1" source="j7wyvuA6OXwUdKk2D4u--127" target="j7wyvuA6OXwUdKk2D4u--129">
          <mxGeometry relative="1" as="geometry" />
        </mxCell>
        <mxCell id="j7wyvuA6OXwUdKk2D4u--127" value="Service&lt;br&gt;（Bussiness Logic)" style="rounded=0;whiteSpace=wrap;html=1;shadow=0;glass=0;sketch=0;fontSize=18;fillColor=#f5f5f5;fontColor=#333333;strokeColor=#666666;" vertex="1" parent="1">
          <mxGeometry x="-1774" y="1315" width="237" height="139" as="geometry" />
        </mxCell>
        <mxCell id="j7wyvuA6OXwUdKk2D4u--128" style="edgeStyle=orthogonalEdgeStyle;rounded=0;orthogonalLoop=1;jettySize=auto;html=1;dashed=1;fontSize=18;" edge="1" parent="1" source="j7wyvuA6OXwUdKk2D4u--129" target="j7wyvuA6OXwUdKk2D4u--130">
          <mxGeometry relative="1" as="geometry" />
        </mxCell>
        <mxCell id="j7wyvuA6OXwUdKk2D4u--129" value="Data Repository&lt;br&gt;(Data Access)" style="rounded=0;whiteSpace=wrap;html=1;shadow=0;glass=0;sketch=0;fontSize=18;fillColor=#f5f5f5;fontColor=#333333;strokeColor=#666666;" vertex="1" parent="1">
          <mxGeometry x="-1774" y="1584" width="237" height="139" as="geometry" />
        </mxCell>
        <mxCell id="j7wyvuA6OXwUdKk2D4u--130" value="MySQL" style="shape=datastore;whiteSpace=wrap;html=1;rounded=0;shadow=0;glass=0;sketch=0;fontSize=18;fillColor=#f5f5f5;fontColor=#333333;strokeColor=#666666;" vertex="1" parent="1">
          <mxGeometry x="-1768" y="1820" width="225" height="195.5" as="geometry" />
        </mxCell>
        <mxCell id="j7wyvuA6OXwUdKk2D4u--131" value="&amp;nbsp;" style="rounded=0;whiteSpace=wrap;html=1;fontSize=18;fillColor=#dae8fc;strokeColor=#6c8ebf;" vertex="1" parent="1">
          <mxGeometry x="-3108.75" y="1201" width="1010.75" height="899" as="geometry" />
        </mxCell>
        <mxCell id="j7wyvuA6OXwUdKk2D4u--132" style="edgeStyle=orthogonalEdgeStyle;rounded=0;orthogonalLoop=1;jettySize=auto;html=1;entryX=0;entryY=0.5;entryDx=0;entryDy=0;fontSize=18;exitX=0.5;exitY=0;exitDx=0;exitDy=0;" edge="1" parent="1" source="j7wyvuA6OXwUdKk2D4u--136" target="j7wyvuA6OXwUdKk2D4u--138">
          <mxGeometry relative="1" as="geometry" />
        </mxCell>
        <mxCell id="j7wyvuA6OXwUdKk2D4u--133" style="edgeStyle=orthogonalEdgeStyle;rounded=0;orthogonalLoop=1;jettySize=auto;html=1;exitX=1;exitY=0.25;exitDx=0;exitDy=0;entryX=0;entryY=0.25;entryDx=0;entryDy=0;fontSize=18;" edge="1" parent="1" source="j7wyvuA6OXwUdKk2D4u--136" target="j7wyvuA6OXwUdKk2D4u--148">
          <mxGeometry relative="1" as="geometry" />
        </mxCell>
        <mxCell id="j7wyvuA6OXwUdKk2D4u--134" style="edgeStyle=orthogonalEdgeStyle;rounded=0;orthogonalLoop=1;jettySize=auto;html=1;exitX=0.75;exitY=1;exitDx=0;exitDy=0;entryX=0.75;entryY=0;entryDx=0;entryDy=0;fontSize=18;" edge="1" parent="1" source="j7wyvuA6OXwUdKk2D4u--136" target="j7wyvuA6OXwUdKk2D4u--159">
          <mxGeometry relative="1" as="geometry" />
        </mxCell>
        <mxCell id="j7wyvuA6OXwUdKk2D4u--135" style="edgeStyle=orthogonalEdgeStyle;rounded=0;orthogonalLoop=1;jettySize=auto;html=1;exitX=0.25;exitY=1;exitDx=0;exitDy=0;entryX=0.5;entryY=0;entryDx=0;entryDy=0;fontSize=18;" edge="1" parent="1" source="j7wyvuA6OXwUdKk2D4u--136" target="j7wyvuA6OXwUdKk2D4u--164">
          <mxGeometry relative="1" as="geometry" />
        </mxCell>
        <mxCell id="j7wyvuA6OXwUdKk2D4u--136" value="DispatcherServlet" style="rounded=0;whiteSpace=wrap;html=1;fontSize=18;fillColor=#f5f5f5;fontColor=#333333;strokeColor=#666666;" vertex="1" parent="1">
          <mxGeometry x="-3006" y="1609" width="155" height="95" as="geometry" />
        </mxCell>
        <mxCell id="j7wyvuA6OXwUdKk2D4u--137" style="edgeStyle=orthogonalEdgeStyle;rounded=0;orthogonalLoop=1;jettySize=auto;html=1;entryX=0.5;entryY=0;entryDx=0;entryDy=0;fontSize=18;" edge="1" parent="1" source="j7wyvuA6OXwUdKk2D4u--138" target="j7wyvuA6OXwUdKk2D4u--140">
          <mxGeometry relative="1" as="geometry" />
        </mxCell>
        <mxCell id="j7wyvuA6OXwUdKk2D4u--138" value="HandlerMapping" style="rounded=0;whiteSpace=wrap;html=1;fontSize=18;fillColor=#f5f5f5;fontColor=#333333;strokeColor=#666666;" vertex="1" parent="1">
          <mxGeometry x="-2665" y="1255" width="165" height="91" as="geometry" />
        </mxCell>
        <mxCell id="j7wyvuA6OXwUdKk2D4u--139" style="edgeStyle=orthogonalEdgeStyle;rounded=0;orthogonalLoop=1;jettySize=auto;html=1;entryX=0.75;entryY=0;entryDx=0;entryDy=0;fontSize=18;" edge="1" parent="1" source="j7wyvuA6OXwUdKk2D4u--140" target="j7wyvuA6OXwUdKk2D4u--136">
          <mxGeometry relative="1" as="geometry" />
        </mxCell>
        <mxCell id="j7wyvuA6OXwUdKk2D4u--140" value="HandlerExecution" style="rounded=0;whiteSpace=wrap;html=1;fontSize=18;fillColor=#f5f5f5;fontColor=#333333;strokeColor=#666666;" vertex="1" parent="1">
          <mxGeometry x="-2666.5" y="1444" width="168" height="60" as="geometry" />
        </mxCell>
        <mxCell id="j7wyvuA6OXwUdKk2D4u--141" value="" style="endArrow=classic;html=1;rounded=0;fontSize=18;entryX=0.25;entryY=0;entryDx=0;entryDy=0;" edge="1" parent="1" target="j7wyvuA6OXwUdKk2D4u--136">
          <mxGeometry width="50" height="50" relative="1" as="geometry">
            <mxPoint x="-2968" y="1312" as="sourcePoint" />
            <mxPoint x="-2969" y="1289" as="targetPoint" />
          </mxGeometry>
        </mxCell>
        <mxCell id="j7wyvuA6OXwUdKk2D4u--142" value="1" style="text;html=1;strokeColor=none;fillColor=none;align=center;verticalAlign=middle;whiteSpace=wrap;rounded=0;fontSize=18;" vertex="1" parent="1">
          <mxGeometry x="-3025" y="1441" width="60" height="30" as="geometry" />
        </mxCell>
        <mxCell id="j7wyvuA6OXwUdKk2D4u--143" value="2" style="text;html=1;strokeColor=none;fillColor=none;align=center;verticalAlign=middle;whiteSpace=wrap;rounded=0;fontSize=18;" vertex="1" parent="1">
          <mxGeometry x="-2805" y="1261" width="60" height="30" as="geometry" />
        </mxCell>
        <mxCell id="j7wyvuA6OXwUdKk2D4u--144" value="4" style="text;html=1;strokeColor=none;fillColor=none;align=center;verticalAlign=middle;whiteSpace=wrap;rounded=0;fontSize=18;" vertex="1" parent="1">
          <mxGeometry x="-2791" y="1432" width="60" height="30" as="geometry" />
        </mxCell>
        <mxCell id="j7wyvuA6OXwUdKk2D4u--145" value="3" style="text;html=1;strokeColor=none;fillColor=none;align=center;verticalAlign=middle;whiteSpace=wrap;rounded=0;fontSize=18;" vertex="1" parent="1">
          <mxGeometry x="-2572" y="1373" width="60" height="30" as="geometry" />
        </mxCell>
        <mxCell id="j7wyvuA6OXwUdKk2D4u--146" style="edgeStyle=orthogonalEdgeStyle;rounded=0;orthogonalLoop=1;jettySize=auto;html=1;exitX=0;exitY=0.75;exitDx=0;exitDy=0;entryX=1;entryY=0.75;entryDx=0;entryDy=0;fontSize=18;" edge="1" parent="1" source="j7wyvuA6OXwUdKk2D4u--148" target="j7wyvuA6OXwUdKk2D4u--136">
          <mxGeometry relative="1" as="geometry" />
        </mxCell>
        <mxCell id="j7wyvuA6OXwUdKk2D4u--147" style="edgeStyle=orthogonalEdgeStyle;rounded=0;orthogonalLoop=1;jettySize=auto;html=1;exitX=1;exitY=0.25;exitDx=0;exitDy=0;entryX=0;entryY=0.25;entryDx=0;entryDy=0;fontSize=18;" edge="1" parent="1" source="j7wyvuA6OXwUdKk2D4u--148" target="j7wyvuA6OXwUdKk2D4u--153">
          <mxGeometry relative="1" as="geometry" />
        </mxCell>
        <mxCell id="j7wyvuA6OXwUdKk2D4u--148" value="HandlerAdapter" style="rounded=0;whiteSpace=wrap;html=1;fontSize=18;fillColor=#f5f5f5;fontColor=#333333;strokeColor=#666666;" vertex="1" parent="1">
          <mxGeometry x="-2671.5" y="1609" width="178" height="96" as="geometry" />
        </mxCell>
        <mxCell id="j7wyvuA6OXwUdKk2D4u--149" value="5" style="text;html=1;strokeColor=none;fillColor=none;align=center;verticalAlign=middle;whiteSpace=wrap;rounded=0;fontSize=18;" vertex="1" parent="1">
          <mxGeometry x="-2788" y="1596" width="60" height="30" as="geometry" />
        </mxCell>
        <mxCell id="j7wyvuA6OXwUdKk2D4u--150" value="8" style="text;html=1;strokeColor=none;fillColor=none;align=center;verticalAlign=middle;whiteSpace=wrap;rounded=0;fontSize=18;" vertex="1" parent="1">
          <mxGeometry x="-2788" y="1689" width="60" height="30" as="geometry" />
        </mxCell>
        <mxCell id="j7wyvuA6OXwUdKk2D4u--151" style="edgeStyle=orthogonalEdgeStyle;rounded=0;orthogonalLoop=1;jettySize=auto;html=1;exitX=0;exitY=0.75;exitDx=0;exitDy=0;entryX=1;entryY=0.75;entryDx=0;entryDy=0;fontSize=18;" edge="1" parent="1" source="j7wyvuA6OXwUdKk2D4u--153" target="j7wyvuA6OXwUdKk2D4u--148">
          <mxGeometry relative="1" as="geometry" />
        </mxCell>
        <mxCell id="j7wyvuA6OXwUdKk2D4u--152" style="edgeStyle=orthogonalEdgeStyle;rounded=0;orthogonalLoop=1;jettySize=auto;html=1;entryX=0.5;entryY=0;entryDx=0;entryDy=0;fontSize=18;dashed=1;" edge="1" parent="1" source="j7wyvuA6OXwUdKk2D4u--153" target="j7wyvuA6OXwUdKk2D4u--156">
          <mxGeometry relative="1" as="geometry" />
        </mxCell>
        <mxCell id="j7wyvuA6OXwUdKk2D4u--167" style="edgeStyle=orthogonalEdgeStyle;rounded=0;orthogonalLoop=1;jettySize=auto;html=1;entryX=0;entryY=0.5;entryDx=0;entryDy=0;dashed=1;fontSize=18;" edge="1" parent="1" source="j7wyvuA6OXwUdKk2D4u--153" target="j7wyvuA6OXwUdKk2D4u--127">
          <mxGeometry relative="1" as="geometry" />
        </mxCell>
        <mxCell id="j7wyvuA6OXwUdKk2D4u--153" value="Controller" style="rounded=0;whiteSpace=wrap;html=1;fontSize=18;fillColor=#f5f5f5;fontColor=#333333;strokeColor=#666666;" vertex="1" parent="1">
          <mxGeometry x="-2357" y="1609" width="181.5" height="96" as="geometry" />
        </mxCell>
        <mxCell id="j7wyvuA6OXwUdKk2D4u--154" value="6" style="text;html=1;strokeColor=none;fillColor=none;align=center;verticalAlign=middle;whiteSpace=wrap;rounded=0;fontSize=18;" vertex="1" parent="1">
          <mxGeometry x="-2455" y="1596" width="60" height="30" as="geometry" />
        </mxCell>
        <mxCell id="j7wyvuA6OXwUdKk2D4u--155" value="7" style="text;html=1;strokeColor=none;fillColor=none;align=center;verticalAlign=middle;whiteSpace=wrap;rounded=0;fontSize=18;" vertex="1" parent="1">
          <mxGeometry x="-2452" y="1689" width="60" height="30" as="geometry" />
        </mxCell>
        <mxCell id="j7wyvuA6OXwUdKk2D4u--156" value="Model" style="rounded=0;whiteSpace=wrap;html=1;fontSize=18;fillColor=#f5f5f5;fontColor=#333333;strokeColor=#666666;" vertex="1" parent="1">
          <mxGeometry x="-2353.75" y="1931" width="175" height="89" as="geometry" />
        </mxCell>
        <mxCell id="j7wyvuA6OXwUdKk2D4u--157" style="edgeStyle=orthogonalEdgeStyle;rounded=0;orthogonalLoop=1;jettySize=auto;html=1;entryX=0.5;entryY=1;entryDx=0;entryDy=0;fontSize=18;" edge="1" parent="1" source="j7wyvuA6OXwUdKk2D4u--159" target="j7wyvuA6OXwUdKk2D4u--136">
          <mxGeometry relative="1" as="geometry">
            <Array as="points">
              <mxPoint x="-2572" y="1852" />
              <mxPoint x="-2929" y="1852" />
            </Array>
          </mxGeometry>
        </mxCell>
        <mxCell id="j7wyvuA6OXwUdKk2D4u--158" style="edgeStyle=orthogonalEdgeStyle;rounded=0;orthogonalLoop=1;jettySize=auto;html=1;entryX=1;entryY=0.5;entryDx=0;entryDy=0;fontSize=18;dashed=1;" edge="1" parent="1" source="j7wyvuA6OXwUdKk2D4u--159" target="j7wyvuA6OXwUdKk2D4u--164">
          <mxGeometry relative="1" as="geometry" />
        </mxCell>
        <mxCell id="j7wyvuA6OXwUdKk2D4u--159" value="ViewResolver" style="rounded=0;whiteSpace=wrap;html=1;fontSize=18;fillColor=#f5f5f5;fontColor=#333333;strokeColor=#666666;" vertex="1" parent="1">
          <mxGeometry x="-2666.5" y="1935" width="188.5" height="81" as="geometry" />
        </mxCell>
        <mxCell id="j7wyvuA6OXwUdKk2D4u--160" value="9" style="text;html=1;strokeColor=none;fillColor=none;align=center;verticalAlign=middle;whiteSpace=wrap;rounded=0;fontSize=18;" vertex="1" parent="1">
          <mxGeometry x="-2716" y="1780" width="60" height="30" as="geometry" />
        </mxCell>
        <mxCell id="j7wyvuA6OXwUdKk2D4u--161" value="10" style="text;html=1;strokeColor=none;fillColor=none;align=center;verticalAlign=middle;whiteSpace=wrap;rounded=0;fontSize=18;" vertex="1" parent="1">
          <mxGeometry x="-2793" y="1862" width="60" height="30" as="geometry" />
        </mxCell>
        <mxCell id="j7wyvuA6OXwUdKk2D4u--162" style="edgeStyle=orthogonalEdgeStyle;rounded=0;orthogonalLoop=1;jettySize=auto;html=1;entryX=0.5;entryY=1;entryDx=0;entryDy=0;fontSize=18;dashed=1;" edge="1" parent="1" source="j7wyvuA6OXwUdKk2D4u--164" target="j7wyvuA6OXwUdKk2D4u--156">
          <mxGeometry relative="1" as="geometry">
            <Array as="points">
              <mxPoint x="-2967" y="2054" />
              <mxPoint x="-2266" y="2054" />
            </Array>
          </mxGeometry>
        </mxCell>
        <mxCell id="j7wyvuA6OXwUdKk2D4u--163" style="edgeStyle=orthogonalEdgeStyle;rounded=0;orthogonalLoop=1;jettySize=auto;html=1;fontSize=18;" edge="1" parent="1" source="j7wyvuA6OXwUdKk2D4u--164">
          <mxGeometry relative="1" as="geometry">
            <mxPoint x="-3099" y="1976.0000000000005" as="targetPoint" />
          </mxGeometry>
        </mxCell>
        <mxCell id="j7wyvuA6OXwUdKk2D4u--164" value="View" style="rounded=0;whiteSpace=wrap;html=1;fontSize=18;fillColor=#f5f5f5;fontColor=#333333;strokeColor=#666666;" vertex="1" parent="1">
          <mxGeometry x="-3028" y="1943.5" width="121" height="64" as="geometry" />
        </mxCell>
        <mxCell id="j7wyvuA6OXwUdKk2D4u--165" value="12" style="text;html=1;strokeColor=none;fillColor=none;align=center;verticalAlign=middle;whiteSpace=wrap;rounded=0;fontSize=18;" vertex="1" parent="1">
          <mxGeometry x="-3094" y="1938" width="60" height="30" as="geometry" />
        </mxCell>
        <mxCell id="j7wyvuA6OXwUdKk2D4u--166" value="11" style="text;html=1;strokeColor=none;fillColor=none;align=center;verticalAlign=middle;whiteSpace=wrap;rounded=0;fontSize=18;" vertex="1" parent="1">
          <mxGeometry x="-3028" y="1796" width="60" height="30" as="geometry" />
        </mxCell>
      </root>
    </mxGraphModel>
  </diagram>
</mxfile>
